<mxfile host="app.diagrams.net" agent="Mozilla/5.0 (Windows NT 10.0; Win64; x64) AppleWebKit/537.36 (KHTML, like Gecko) Chrome/129.0.0.0 Safari/537.36" version="24.7.12">
  <diagram name="Page-1" id="vV5Pchl1GpSoFL2dAcY7">
    <mxGraphModel dx="927" dy="1126" grid="0" gridSize="10" guides="1" tooltips="1" connect="1" arrows="1" fold="1" page="0" pageScale="1" pageWidth="827" pageHeight="1169" math="0" shadow="0">
      <root>
        <mxCell id="0" />
        <mxCell id="1" parent="0" />
        <mxCell id="3aD0UoWlovdgjibEBfu2-3" style="edgeStyle=none;curved=1;rounded=0;orthogonalLoop=1;jettySize=auto;html=1;exitX=0.5;exitY=0.5;exitDx=0;exitDy=0;exitPerimeter=0;entryX=0.5;entryY=1;entryDx=0;entryDy=0;fontSize=12;startSize=8;endSize=8;" edge="1" parent="1" source="3aD0UoWlovdgjibEBfu2-1" target="3aD0UoWlovdgjibEBfu2-2">
          <mxGeometry relative="1" as="geometry" />
        </mxCell>
        <mxCell id="3aD0UoWlovdgjibEBfu2-1" value="Gérard Deschamps" style="shape=umlActor;verticalLabelPosition=bottom;verticalAlign=top;html=1;outlineConnect=0;" vertex="1" parent="1">
          <mxGeometry x="468" y="557" width="30" height="60" as="geometry" />
        </mxCell>
        <mxCell id="3aD0UoWlovdgjibEBfu2-11" style="edgeStyle=none;curved=1;rounded=0;orthogonalLoop=1;jettySize=auto;html=1;exitX=0.5;exitY=0;exitDx=0;exitDy=0;fontSize=12;startSize=8;endSize=8;" edge="1" parent="1" source="3aD0UoWlovdgjibEBfu2-2">
          <mxGeometry relative="1" as="geometry">
            <mxPoint x="675.4371859296484" y="125" as="targetPoint" />
          </mxGeometry>
        </mxCell>
        <mxCell id="3aD0UoWlovdgjibEBfu2-29" style="edgeStyle=none;curved=1;rounded=0;orthogonalLoop=1;jettySize=auto;html=1;exitX=0.5;exitY=1;exitDx=0;exitDy=0;fontSize=12;startSize=8;endSize=8;" edge="1" parent="1" source="3aD0UoWlovdgjibEBfu2-2" target="3aD0UoWlovdgjibEBfu2-28">
          <mxGeometry relative="1" as="geometry" />
        </mxCell>
        <mxCell id="3aD0UoWlovdgjibEBfu2-42" style="edgeStyle=none;curved=1;rounded=0;orthogonalLoop=1;jettySize=auto;html=1;exitX=1;exitY=0.25;exitDx=0;exitDy=0;fontSize=12;startSize=8;endSize=8;" edge="1" parent="1" source="3aD0UoWlovdgjibEBfu2-2">
          <mxGeometry relative="1" as="geometry">
            <mxPoint x="809.1904907226562" y="144" as="targetPoint" />
          </mxGeometry>
        </mxCell>
        <mxCell id="3aD0UoWlovdgjibEBfu2-50" style="edgeStyle=none;curved=1;rounded=0;orthogonalLoop=1;jettySize=auto;html=1;exitX=1;exitY=0.75;exitDx=0;exitDy=0;fontSize=12;startSize=8;endSize=8;" edge="1" parent="1" source="3aD0UoWlovdgjibEBfu2-2">
          <mxGeometry relative="1" as="geometry">
            <mxPoint x="953.0000435965403" y="459.2381243024554" as="targetPoint" />
          </mxGeometry>
        </mxCell>
        <mxCell id="3aD0UoWlovdgjibEBfu2-54" value="Lieu sinistre" style="edgeLabel;html=1;align=center;verticalAlign=middle;resizable=0;points=[];fontSize=12;" vertex="1" connectable="0" parent="3aD0UoWlovdgjibEBfu2-50">
          <mxGeometry x="-0.333" y="1" relative="1" as="geometry">
            <mxPoint as="offset" />
          </mxGeometry>
        </mxCell>
        <mxCell id="3aD0UoWlovdgjibEBfu2-2" value="Sinistre&amp;nbsp;" style="whiteSpace=wrap;html=1;aspect=fixed;" vertex="1" parent="1">
          <mxGeometry x="621" y="294" width="80" height="80" as="geometry" />
        </mxCell>
        <mxCell id="3aD0UoWlovdgjibEBfu2-4" value="Tiers" style="text;html=1;align=center;verticalAlign=middle;resizable=0;points=[];autosize=1;strokeColor=none;fillColor=none;fontSize=16;" vertex="1" parent="1">
          <mxGeometry x="562.5" y="411.5" width="53" height="31" as="geometry" />
        </mxCell>
        <mxCell id="3aD0UoWlovdgjibEBfu2-7" style="edgeStyle=none;curved=1;rounded=0;orthogonalLoop=1;jettySize=auto;html=1;entryX=0;entryY=0.5;entryDx=0;entryDy=0;fontSize=12;startSize=8;endSize=8;" edge="1" parent="1" source="3aD0UoWlovdgjibEBfu2-6" target="3aD0UoWlovdgjibEBfu2-2">
          <mxGeometry relative="1" as="geometry" />
        </mxCell>
        <mxCell id="3aD0UoWlovdgjibEBfu2-8" value="Tiers&lt;div&gt;&lt;br&gt;&lt;/div&gt;" style="edgeLabel;html=1;align=center;verticalAlign=middle;resizable=0;points=[];fontSize=12;" vertex="1" connectable="0" parent="3aD0UoWlovdgjibEBfu2-7">
          <mxGeometry x="-0.4237" y="-3" relative="1" as="geometry">
            <mxPoint as="offset" />
          </mxGeometry>
        </mxCell>
        <mxCell id="3aD0UoWlovdgjibEBfu2-6" value="" style="shape=mxgraph.signs.transportation.car_1;html=1;pointerEvents=1;fillColor=#000000;strokeColor=none;verticalLabelPosition=bottom;verticalAlign=top;align=center;" vertex="1" parent="1">
          <mxGeometry x="263" y="312" width="99" height="88" as="geometry" />
        </mxCell>
        <mxCell id="3aD0UoWlovdgjibEBfu2-9" value="Renault Clio&amp;nbsp;&lt;div&gt;&lt;br&gt;&lt;/div&gt;" style="text;html=1;align=center;verticalAlign=middle;resizable=0;points=[];autosize=1;strokeColor=none;fillColor=none;fontSize=16;" vertex="1" parent="1">
          <mxGeometry x="242.5" y="385.5" width="110" height="50" as="geometry" />
        </mxCell>
        <mxCell id="3aD0UoWlovdgjibEBfu2-57" style="edgeStyle=none;curved=1;rounded=0;orthogonalLoop=1;jettySize=auto;html=1;exitX=0;exitY=0.3333333333333333;exitDx=0;exitDy=0;exitPerimeter=0;fontSize=12;startSize=8;endSize=8;" edge="1" parent="1" source="3aD0UoWlovdgjibEBfu2-14">
          <mxGeometry relative="1" as="geometry">
            <mxPoint x="545.3810250418528" y="-35.04758998325883" as="targetPoint" />
          </mxGeometry>
        </mxCell>
        <mxCell id="3aD0UoWlovdgjibEBfu2-58" value="Contrat" style="edgeLabel;html=1;align=center;verticalAlign=middle;resizable=0;points=[];fontSize=12;" vertex="1" connectable="0" parent="3aD0UoWlovdgjibEBfu2-57">
          <mxGeometry x="-0.1036" y="-1" relative="1" as="geometry">
            <mxPoint as="offset" />
          </mxGeometry>
        </mxCell>
        <mxCell id="3aD0UoWlovdgjibEBfu2-14" value="Actor" style="shape=umlActor;verticalLabelPosition=bottom;verticalAlign=top;html=1;outlineConnect=0;" vertex="1" parent="1">
          <mxGeometry x="655" y="17" width="30" height="60" as="geometry" />
        </mxCell>
        <mxCell id="3aD0UoWlovdgjibEBfu2-15" value="Assuré" style="text;html=1;align=center;verticalAlign=middle;resizable=0;points=[];autosize=1;strokeColor=none;fillColor=none;fontSize=16;" vertex="1" parent="1">
          <mxGeometry x="627.5" y="197.5" width="68" height="31" as="geometry" />
        </mxCell>
        <mxCell id="3aD0UoWlovdgjibEBfu2-16" value="" style="shape=mxgraph.signs.transportation.car_1;html=1;pointerEvents=1;fillColor=#000000;strokeColor=none;verticalLabelPosition=bottom;verticalAlign=top;align=center;" vertex="1" parent="1">
          <mxGeometry x="876" y="278" width="99" height="88" as="geometry" />
        </mxCell>
        <mxCell id="3aD0UoWlovdgjibEBfu2-17" style="edgeStyle=none;curved=1;rounded=0;orthogonalLoop=1;jettySize=auto;html=1;exitX=1;exitY=0.5;exitDx=0;exitDy=0;entryX=0.304;entryY=0.532;entryDx=0;entryDy=0;entryPerimeter=0;fontSize=12;startSize=8;endSize=8;" edge="1" parent="1" source="3aD0UoWlovdgjibEBfu2-2" target="3aD0UoWlovdgjibEBfu2-16">
          <mxGeometry relative="1" as="geometry" />
        </mxCell>
        <mxCell id="3aD0UoWlovdgjibEBfu2-18" value="Peugeot" style="text;html=1;align=center;verticalAlign=middle;resizable=0;points=[];autosize=1;strokeColor=none;fillColor=none;fontSize=16;" vertex="1" parent="1">
          <mxGeometry x="886.5" y="353" width="78" height="31" as="geometry" />
        </mxCell>
        <mxCell id="3aD0UoWlovdgjibEBfu2-19" value="Assuré" style="text;html=1;align=center;verticalAlign=middle;resizable=0;points=[];autosize=1;strokeColor=none;fillColor=none;fontSize=16;" vertex="1" parent="1">
          <mxGeometry x="717.5" y="302.5" width="68" height="31" as="geometry" />
        </mxCell>
        <mxCell id="3aD0UoWlovdgjibEBfu2-34" style="edgeStyle=none;curved=1;rounded=0;orthogonalLoop=1;jettySize=auto;html=1;entryX=1;entryY=0.5;entryDx=0;entryDy=0;fontSize=12;startSize=8;endSize=8;" edge="1" parent="1" source="3aD0UoWlovdgjibEBfu2-22" target="3aD0UoWlovdgjibEBfu2-32">
          <mxGeometry relative="1" as="geometry" />
        </mxCell>
        <mxCell id="3aD0UoWlovdgjibEBfu2-36" value="Tiers" style="edgeLabel;html=1;align=center;verticalAlign=middle;resizable=0;points=[];fontSize=12;" vertex="1" connectable="0" parent="3aD0UoWlovdgjibEBfu2-34">
          <mxGeometry x="-0.1281" y="-1" relative="1" as="geometry">
            <mxPoint as="offset" />
          </mxGeometry>
        </mxCell>
        <mxCell id="3aD0UoWlovdgjibEBfu2-40" style="edgeStyle=none;curved=1;rounded=0;orthogonalLoop=1;jettySize=auto;html=1;fontSize=12;startSize=8;endSize=8;" edge="1" parent="1" source="3aD0UoWlovdgjibEBfu2-22">
          <mxGeometry relative="1" as="geometry">
            <mxPoint x="507" y="797.3333914620537" as="targetPoint" />
          </mxGeometry>
        </mxCell>
        <mxCell id="3aD0UoWlovdgjibEBfu2-22" value="" style="shape=mxgraph.signs.healthcare.hospital_1;html=1;pointerEvents=1;fillColor=#000000;strokeColor=none;verticalLabelPosition=bottom;verticalAlign=top;align=center;" vertex="1" parent="1">
          <mxGeometry x="491" y="584" width="32" height="29" as="geometry" />
        </mxCell>
        <mxCell id="3aD0UoWlovdgjibEBfu2-23" value="" style="endArrow=classic;html=1;rounded=0;fontSize=12;startSize=8;endSize=8;curved=1;" edge="1" parent="1">
          <mxGeometry width="50" height="50" relative="1" as="geometry">
            <mxPoint x="517" y="591" as="sourcePoint" />
            <mxPoint x="656" y="720" as="targetPoint" />
          </mxGeometry>
        </mxCell>
        <mxCell id="3aD0UoWlovdgjibEBfu2-24" value="Client" style="edgeLabel;html=1;align=center;verticalAlign=middle;resizable=0;points=[];fontSize=12;" vertex="1" connectable="0" parent="3aD0UoWlovdgjibEBfu2-23">
          <mxGeometry x="-0.2663" y="-4" relative="1" as="geometry">
            <mxPoint as="offset" />
          </mxGeometry>
        </mxCell>
        <mxCell id="3aD0UoWlovdgjibEBfu2-25" value="Assurance habitat (fermé)" style="whiteSpace=wrap;html=1;aspect=fixed;" vertex="1" parent="1">
          <mxGeometry x="635" y="728" width="80" height="80" as="geometry" />
        </mxCell>
        <mxCell id="3aD0UoWlovdgjibEBfu2-27" style="edgeStyle=none;curved=1;rounded=0;orthogonalLoop=1;jettySize=auto;html=1;entryX=1;entryY=0.25;entryDx=0;entryDy=0;fontSize=12;startSize=8;endSize=8;" edge="1" parent="1" source="3aD0UoWlovdgjibEBfu2-26" target="3aD0UoWlovdgjibEBfu2-25">
          <mxGeometry relative="1" as="geometry" />
        </mxCell>
        <mxCell id="3aD0UoWlovdgjibEBfu2-26" value="" style="html=1;verticalLabelPosition=bottom;align=center;labelBackgroundColor=#ffffff;verticalAlign=top;strokeWidth=2;strokeColor=#0080F0;shadow=0;dashed=0;shape=mxgraph.ios7.icons.home;" vertex="1" parent="1">
          <mxGeometry x="785.5" y="734" width="82" height="68" as="geometry" />
        </mxCell>
        <mxCell id="3aD0UoWlovdgjibEBfu2-33" style="edgeStyle=none;curved=1;rounded=0;orthogonalLoop=1;jettySize=auto;html=1;exitX=0.15;exitY=0.5;exitDx=0;exitDy=0;exitPerimeter=0;entryX=0.5;entryY=0;entryDx=0;entryDy=0;fontSize=12;startSize=8;endSize=8;" edge="1" parent="1" source="3aD0UoWlovdgjibEBfu2-28" target="3aD0UoWlovdgjibEBfu2-32">
          <mxGeometry relative="1" as="geometry" />
        </mxCell>
        <mxCell id="3aD0UoWlovdgjibEBfu2-28" value="" style="shape=mxgraph.signs.tech.telephone_1;html=1;pointerEvents=1;fillColor=#000000;strokeColor=none;verticalLabelPosition=bottom;verticalAlign=top;align=center;" vertex="1" parent="1">
          <mxGeometry x="352.5" y="509" width="32" height="50" as="geometry" />
        </mxCell>
        <mxCell id="3aD0UoWlovdgjibEBfu2-38" style="edgeStyle=none;curved=1;rounded=0;orthogonalLoop=1;jettySize=auto;html=1;fontSize=12;startSize=8;endSize=8;" edge="1" parent="1" source="3aD0UoWlovdgjibEBfu2-32">
          <mxGeometry relative="1" as="geometry">
            <mxPoint x="247.28575788225453" y="539.2381243024554" as="targetPoint" />
          </mxGeometry>
        </mxCell>
        <mxCell id="3aD0UoWlovdgjibEBfu2-32" value="Sinistre Georges Deschamps (payé)" style="whiteSpace=wrap;html=1;aspect=fixed;" vertex="1" parent="1">
          <mxGeometry x="229" y="667" width="80" height="80" as="geometry" />
        </mxCell>
        <mxCell id="3aD0UoWlovdgjibEBfu2-35" value="" style="shape=mxgraph.signs.transportation.car_1;html=1;pointerEvents=1;fillColor=#000000;strokeColor=none;verticalLabelPosition=bottom;verticalAlign=top;align=center;" vertex="1" parent="1">
          <mxGeometry x="2" y="670" width="99" height="88" as="geometry" />
        </mxCell>
        <mxCell id="3aD0UoWlovdgjibEBfu2-37" style="edgeStyle=none;curved=1;rounded=0;orthogonalLoop=1;jettySize=auto;html=1;exitX=0;exitY=0.5;exitDx=0;exitDy=0;entryX=0.99;entryY=0.5;entryDx=0;entryDy=0;entryPerimeter=0;fontSize=12;startSize=8;endSize=8;" edge="1" parent="1" source="3aD0UoWlovdgjibEBfu2-32" target="3aD0UoWlovdgjibEBfu2-35">
          <mxGeometry relative="1" as="geometry" />
        </mxCell>
        <mxCell id="3aD0UoWlovdgjibEBfu2-39" value="Actor" style="shape=umlActor;verticalLabelPosition=bottom;verticalAlign=top;html=1;outlineConnect=0;" vertex="1" parent="1">
          <mxGeometry x="233" y="447" width="30" height="60" as="geometry" />
        </mxCell>
        <mxCell id="3aD0UoWlovdgjibEBfu2-41" value="Interdit bancaire" style="whiteSpace=wrap;html=1;aspect=fixed;shape=image;labelBackgroundColor=default;verticalAlign=top;verticalLabelPosition=bottom;perimeter=ellipsePerimeter;shadow=0;dashed=0;fontColor=#4277BB;spacingTop=3;image=img/lib/ibm/security/governance_risk_compliance.svg;" vertex="1" parent="1">
          <mxGeometry x="464" y="799" width="80" height="80" as="geometry" />
        </mxCell>
        <mxCell id="3aD0UoWlovdgjibEBfu2-46" style="edgeStyle=none;curved=1;rounded=0;orthogonalLoop=1;jettySize=auto;html=1;fontSize=12;startSize=8;endSize=8;" edge="1" parent="1" source="3aD0UoWlovdgjibEBfu2-43" target="3aD0UoWlovdgjibEBfu2-45">
          <mxGeometry relative="1" as="geometry" />
        </mxCell>
        <mxCell id="3aD0UoWlovdgjibEBfu2-47" value="Directeur" style="edgeLabel;html=1;align=center;verticalAlign=middle;resizable=0;points=[];fontSize=12;" vertex="1" connectable="0" parent="3aD0UoWlovdgjibEBfu2-46">
          <mxGeometry x="-0.1164" y="1" relative="1" as="geometry">
            <mxPoint as="offset" />
          </mxGeometry>
        </mxCell>
        <mxCell id="3aD0UoWlovdgjibEBfu2-56" style="edgeStyle=none;curved=1;rounded=0;orthogonalLoop=1;jettySize=auto;html=1;exitX=1;exitY=0.5;exitDx=0;exitDy=0;entryX=0.5;entryY=0;entryDx=0;entryDy=0;fontSize=12;startSize=8;endSize=8;" edge="1" parent="1" source="3aD0UoWlovdgjibEBfu2-43" target="3aD0UoWlovdgjibEBfu2-52">
          <mxGeometry relative="1" as="geometry" />
        </mxCell>
        <mxCell id="3aD0UoWlovdgjibEBfu2-43" value="" style="shape=image;html=1;verticalAlign=top;verticalLabelPosition=bottom;labelBackgroundColor=#ffffff;imageAspect=0;aspect=fixed;image=https://cdn1.iconfinder.com/data/icons/racing-13/512/Garage-128.png" vertex="1" parent="1">
          <mxGeometry x="772" y="20" width="128" height="128" as="geometry" />
        </mxCell>
        <mxCell id="3aD0UoWlovdgjibEBfu2-44" value="garagiste" style="text;html=1;align=center;verticalAlign=middle;resizable=0;points=[];autosize=1;strokeColor=none;fillColor=none;fontSize=16;" vertex="1" parent="1">
          <mxGeometry x="788.5" y="142.5" width="84" height="31" as="geometry" />
        </mxCell>
        <mxCell id="3aD0UoWlovdgjibEBfu2-49" style="edgeStyle=none;curved=1;rounded=0;orthogonalLoop=1;jettySize=auto;html=1;exitX=1;exitY=0.3333333333333333;exitDx=0;exitDy=0;exitPerimeter=0;entryX=0;entryY=0.5;entryDx=0;entryDy=0;fontSize=12;startSize=8;endSize=8;" edge="1" parent="1" source="3aD0UoWlovdgjibEBfu2-45" target="3aD0UoWlovdgjibEBfu2-48">
          <mxGeometry relative="1" as="geometry" />
        </mxCell>
        <mxCell id="3aD0UoWlovdgjibEBfu2-45" value="Actor" style="shape=umlActor;verticalLabelPosition=bottom;verticalAlign=top;html=1;outlineConnect=0;" vertex="1" parent="1">
          <mxGeometry x="940" y="-77" width="30" height="60" as="geometry" />
        </mxCell>
        <mxCell id="3aD0UoWlovdgjibEBfu2-48" value="Watchlist" style="whiteSpace=wrap;html=1;aspect=fixed;fillColor=#f8cecc;strokeColor=#b85450;" vertex="1" parent="1">
          <mxGeometry x="1044" y="-166" width="80" height="80" as="geometry" />
        </mxCell>
        <mxCell id="3aD0UoWlovdgjibEBfu2-53" style="edgeStyle=none;curved=1;rounded=0;orthogonalLoop=1;jettySize=auto;html=1;entryX=0;entryY=0.5;entryDx=0;entryDy=0;fontSize=12;startSize=8;endSize=8;" edge="1" parent="1" source="3aD0UoWlovdgjibEBfu2-51" target="3aD0UoWlovdgjibEBfu2-52">
          <mxGeometry relative="1" as="geometry" />
        </mxCell>
        <mxCell id="3aD0UoWlovdgjibEBfu2-55" value="Lieu sinistre" style="edgeLabel;html=1;align=center;verticalAlign=middle;resizable=0;points=[];fontSize=12;" vertex="1" connectable="0" parent="3aD0UoWlovdgjibEBfu2-53">
          <mxGeometry x="-0.1908" y="-2" relative="1" as="geometry">
            <mxPoint x="-1" as="offset" />
          </mxGeometry>
        </mxCell>
        <mxCell id="3aD0UoWlovdgjibEBfu2-51" value="" style="html=1;verticalLabelPosition=bottom;align=center;labelBackgroundColor=#ffffff;verticalAlign=top;strokeWidth=2;strokeColor=#0080F0;shadow=0;dashed=0;shape=mxgraph.ios7.icons.home;" vertex="1" parent="1">
          <mxGeometry x="964.5" y="432" width="77" height="65" as="geometry" />
        </mxCell>
        <mxCell id="3aD0UoWlovdgjibEBfu2-52" value="Sinistre&amp;nbsp;" style="whiteSpace=wrap;html=1;aspect=fixed;" vertex="1" parent="1">
          <mxGeometry x="1181" y="527" width="80" height="80" as="geometry" />
        </mxCell>
        <mxCell id="3aD0UoWlovdgjibEBfu2-61" style="edgeStyle=none;curved=1;rounded=0;orthogonalLoop=1;jettySize=auto;html=1;exitX=0.5;exitY=1;exitDx=0;exitDy=0;fontSize=12;startSize=8;endSize=8;" edge="1" parent="1" source="3aD0UoWlovdgjibEBfu2-59">
          <mxGeometry relative="1" as="geometry">
            <mxPoint x="458.7143293108261" y="39.23812430245539" as="targetPoint" />
          </mxGeometry>
        </mxCell>
        <mxCell id="3aD0UoWlovdgjibEBfu2-59" value="Véhicule" style="whiteSpace=wrap;html=1;aspect=fixed;" vertex="1" parent="1">
          <mxGeometry x="457" y="-118" width="80" height="80" as="geometry" />
        </mxCell>
        <mxCell id="3aD0UoWlovdgjibEBfu2-62" style="edgeStyle=none;curved=1;rounded=0;orthogonalLoop=1;jettySize=auto;html=1;fontSize=12;startSize=8;endSize=8;" edge="1" parent="1" source="3aD0UoWlovdgjibEBfu2-60">
          <mxGeometry relative="1" as="geometry">
            <mxPoint x="486" y="190" as="targetPoint" />
          </mxGeometry>
        </mxCell>
        <mxCell id="3aD0UoWlovdgjibEBfu2-60" value="Actor" style="shape=umlActor;verticalLabelPosition=bottom;verticalAlign=top;html=1;outlineConnect=0;" vertex="1" parent="1">
          <mxGeometry x="449" y="43" width="30" height="60" as="geometry" />
        </mxCell>
        <mxCell id="3aD0UoWlovdgjibEBfu2-64" style="edgeStyle=none;curved=1;rounded=0;orthogonalLoop=1;jettySize=auto;html=1;fontSize=12;startSize=8;endSize=8;" edge="1" parent="1" source="3aD0UoWlovdgjibEBfu2-63">
          <mxGeometry relative="1" as="geometry">
            <mxPoint x="671.0953107561386" y="560.1904907226562" as="targetPoint" />
          </mxGeometry>
        </mxCell>
        <mxCell id="3aD0UoWlovdgjibEBfu2-63" value="Habitat" style="whiteSpace=wrap;html=1;aspect=fixed;" vertex="1" parent="1">
          <mxGeometry x="455" y="189" width="93" height="93" as="geometry" />
        </mxCell>
        <mxCell id="3aD0UoWlovdgjibEBfu2-66" style="edgeStyle=none;curved=1;rounded=0;orthogonalLoop=1;jettySize=auto;html=1;entryX=0.5;entryY=0;entryDx=0;entryDy=0;fontSize=12;startSize=8;endSize=8;" edge="1" parent="1" source="3aD0UoWlovdgjibEBfu2-65" target="3aD0UoWlovdgjibEBfu2-25">
          <mxGeometry relative="1" as="geometry" />
        </mxCell>
        <mxCell id="3aD0UoWlovdgjibEBfu2-65" value="" style="image;html=1;image=img/lib/clip_art/finance/Piggy_Bank_128x128.png" vertex="1" parent="1">
          <mxGeometry x="642" y="562" width="80" height="80" as="geometry" />
        </mxCell>
      </root>
    </mxGraphModel>
  </diagram>
</mxfile>
